<?xml version="1.0" standalone="no"?>
<!DOCTYPE svg PUBLIC "-//W3C//DTD SVG 20010904//EN"
 "http://www.w3.org/TR/2001/REC-SVG-20010904/DTD/svg10.dtd">
<svg version="1.0" xmlns="http://www.w3.org/2000/svg"
 width="267.000000pt" height="200.000000pt" viewBox="0 0 267.000000 200.000000"
 preserveAspectRatio="xMidYMid meet">

<g transform="translate(0.000000,200.000000) scale(0.100000,-0.100000)"
fill="#000000" stroke="none">
<path d="M1212 1665 c-196 -55 -337 -197 -388 -390 -18 -64 -18 -206 0 -270
33 -126 119 -244 229 -316 67 -43 177 -83 212 -76 15 2 22 0 18 -6 -8 -13 162
-3 197 12 20 8 11 9 -40 5 -36 -3 -71 -7 -77 -9 -7 -3 -13 0 -13 5 0 6 -12 10
-27 10 -116 1 -283 108 -365 234 -97 150 -105 362 -20 520 59 109 175 206 300
249 80 27 224 27 311 -1 78 -25 68 -13 -14 18 -78 29 -245 37 -323 15z"/>
<path d="M1227 1607 c-37 -13 -73 -29 -80 -36 -7 -7 11 -2 38 11 43 20 66 23
171 23 119 0 121 0 198 -39 86 -42 138 -84 181 -146 15 -22 30 -38 33 -36 2 3
-10 22 -27 43 -31 38 -40 63 -20 63 5 0 8 -4 5 -9 -3 -5 0 -14 8 -20 10 -9 15
-8 19 3 4 10 1 13 -9 9 -10 -3 -12 0 -8 10 3 10 -2 20 -15 27 -16 8 -21 8 -19
-1 2 -6 -3 -14 -11 -17 -9 -3 -11 0 -6 9 5 8 5 11 1 7 -5 -4 -13 -3 -20 3 -6
5 -22 17 -35 27 -19 14 -21 21 -11 27 8 5 11 4 6 -3 -8 -14 30 -36 46 -26 7 4
8 3 4 -4 -4 -7 -2 -12 4 -12 7 0 10 5 8 11 -2 6 -7 9 -10 7 -4 -2 -13 5 -20
14 -7 10 -42 30 -78 45 -54 22 -83 27 -175 30 -95 3 -119 0 -178 -20z m378
-37 c-3 -5 -11 -10 -16 -10 -6 0 -7 5 -4 10 3 6 11 10 16 10 6 0 7 -4 4 -10z"/>
<path d="M1251 1533 c14 -37 4 -101 -32 -190 -55 -138 -49 -197 25 -258 47
-38 61 -44 52 -19 -3 8 -2 13 3 10 27 -17 41 237 17 317 -8 26 -11 47 -7 47
13 0 38 -33 54 -70 15 -34 15 -34 16 -7 1 15 -4 27 -10 27 -6 0 -8 9 -4 21 5
15 4 19 -5 14 -8 -5 -8 -1 1 13 7 12 17 19 21 16 4 -3 5 2 2 10 -7 19 -90 81
-122 90 -21 7 -21 6 -11 -21z m113 -78 c-4 -8 -11 -12 -16 -9 -6 4 -5 10 3 15
19 12 19 11 13 -6z"/>
<path d="M1442 1440 c7 -11 16 -20 21 -20 4 0 6 -4 2 -9 -3 -6 3 -14 12 -20
14 -8 15 -10 3 -11 -12 0 -14 -11 -12 -48 3 -39 -8 -84 -51 -213 -30 -90 -61
-188 -67 -218 -15 -64 -8 -156 14 -199 16 -31 16 -32 -3 -32 -11 0 -26 9 -34
20 -8 11 -16 17 -19 14 -3 -3 -5 46 -4 108 2 108 4 118 46 223 24 61 43 121
42 135 -1 20 0 22 8 10 8 -13 10 -12 10 3 0 9 -4 17 -10 17 -5 0 -10 7 -10 16
0 8 -4 13 -9 10 -5 -3 -12 20 -17 52 l-8 57 -7 -100 c-4 -64 -17 -138 -37
-205 -16 -58 -34 -125 -39 -150 l-9 -45 -16 30 c-9 17 -39 55 -68 85 l-51 55
39 -55 c22 -30 50 -75 63 -100 26 -53 70 -173 64 -178 -2 -3 -33 5 -69 16 -36
11 -64 16 -61 12 2 -4 36 -18 75 -30 60 -19 85 -22 173 -18 117 6 178 26 268
89 37 27 57 47 56 59 -1 10 -5 16 -10 13 -4 -3 -6 -11 -3 -18 3 -9 -6 -12 -32
-11 -29 1 -37 -3 -36 -16 1 -10 -2 -15 -7 -12 -5 3 -27 -5 -49 -17 -31 -18
-37 -25 -29 -36 8 -9 8 -13 1 -13 -6 0 -13 4 -16 9 -3 5 -33 0 -67 -10 -67
-21 -99 -24 -99 -10 0 5 -2 16 -5 23 -5 12 8 14 66 14 l71 -1 43 48 c39 43 43
52 40 90 -1 23 -1 36 2 29 3 -6 9 -9 15 -6 5 4 5 -3 -2 -16 -21 -40 -4 -31 28
15 29 41 31 65 2 30 -7 -8 -17 -15 -22 -15 -6 0 -5 7 2 15 10 12 10 15 -1 15
-35 0 -126 -55 -185 -112 -35 -33 -66 -59 -69 -57 -5 6 69 86 115 122 l35 28
-35 -17 c-19 -9 -54 -32 -77 -51 l-41 -34 10 43 c12 54 41 102 82 133 34 26
113 64 147 70 49 10 63 50 33 93 -8 12 -13 28 -11 35 3 7 6 5 6 -5 1 -10 5
-18 10 -18 13 0 6 61 -9 70 -8 5 -10 18 -6 36 6 27 4 30 -36 44 -36 13 -43 20
-41 40 1 14 -1 19 -3 13 -12 -28 -39 -12 -57 31 -10 25 -30 52 -43 61 -24 16
-24 15 -12 -5z m56 -95 c-3 -3 -9 2 -12 12 -6 14 -5 15 5 6 7 -7 10 -15 7 -18z
m7 -39 c-4 -12 -9 -32 -12 -46 -5 -23 -33 -72 -33 -58 0 3 6 24 14 46 8 22 12
49 10 60 -4 13 0 19 11 19 12 0 15 -6 10 -21z m60 -6 c4 -6 -5 -5 -19 2 -14 6
-26 15 -26 20 0 10 36 -7 45 -22z m5 -12 c8 0 26 -2 40 -4 24 -5 24 -6 6 -20
-16 -11 -17 -16 -6 -29 7 -8 10 -21 6 -30 -6 -18 -36 -9 -36 11 0 17 17 18 23
2 4 -10 6 -10 6 -1 1 19 -38 37 -52 24 -7 -5 -19 -6 -26 -2 -9 6 -10 11 -3 15
6 4 8 14 5 22 -5 13 -7 13 -14 2 -5 -7 -9 -8 -9 -2 0 17 13 25 29 18 9 -3 23
-6 31 -6z m49 -148 c0 -10 -3 -8 -9 5 -12 27 -12 43 0 25 5 -8 9 -22 9 -30z
m24 -33 c3 -7 -3 -13 -14 -14 -15 -1 -16 1 -6 12 15 18 14 18 20 2z m67 -331
c0 -12 -112 -76 -122 -70 -16 10 20 34 40 27 11 -5 13 -3 7 7 -6 9 -4 11 4 5
8 -4 21 1 32 14 18 19 39 28 39 17z"/>
<path d="M1600 720 c-9 -6 -10 -10 -3 -10 6 0 15 5 18 10 8 12 4 12 -15 0z"/>
<path d="M1764 1451 c4 -5 0 -11 -6 -14 -7 -3 -3 -4 9 -4 17 1 19 4 11 14 -12
15 -22 18 -14 4z"/>
<path d="M1405 1405 c4 -17 11 -34 16 -39 5 -5 4 5 -1 24 -12 42 -24 55 -15
15z"/>
<path d="M1784 1405 c-4 -10 0 -23 10 -31 9 -8 11 -9 6 -2 -20 25 -10 40 11
17 19 -23 20 -23 10 -2 -15 30 -30 37 -37 18z"/>
<path d="M1341 1354 c0 -11 3 -14 6 -6 3 7 2 16 -1 19 -3 4 -6 -2 -5 -13z"/>
<path d="M1776 1357 c3 -10 9 -15 12 -12 3 3 0 11 -7 18 -10 9 -11 8 -5 -6z"/>
<path d="M1422 1320 c0 -19 2 -27 5 -17 2 9 2 25 0 35 -3 9 -5 1 -5 -18z"/>
<path d="M1381 1314 c0 -11 3 -14 6 -6 3 7 2 16 -1 19 -3 4 -6 -2 -5 -13z"/>
<path d="M1796 1307 c3 -10 9 -15 12 -12 3 3 0 11 -7 18 -10 9 -11 8 -5 -6z"/>
<path d="M1392 1270 c0 -14 2 -19 5 -12 2 6 2 18 0 25 -3 6 -5 1 -5 -13z"/>
<path d="M1412 1230 c0 -14 2 -19 5 -12 2 6 2 18 0 25 -3 6 -5 1 -5 -13z"/>
<path d="M1821 1214 c0 -11 3 -14 6 -6 3 7 2 16 -1 19 -3 4 -6 -2 -5 -13z"/>
<path d="M952 1103 c-10 -4 -8 -9 7 -20 28 -19 63 -92 85 -174 20 -76 49 -129
71 -129 8 0 15 -4 15 -9 0 -15 61 -24 73 -11 9 8 7 9 -7 4 -15 -6 -17 -4 -11
6 6 9 4 12 -6 8 -8 -3 -24 1 -34 9 -19 15 -19 15 3 8 17 -5 22 -2 22 12 0 11
-5 24 -12 31 -6 6 -9 14 -6 18 7 6 49 -15 60 -31 20 -26 5 15 -21 60 -31 54
-81 111 -120 138 -14 9 -22 19 -19 23 9 8 89 -30 115 -55 34 -32 41 -25 8 9
-16 17 -25 30 -21 30 14 0 -17 32 -39 40 -14 6 -15 9 -4 9 8 1 25 -8 38 -20
12 -12 25 -18 28 -15 8 7 -20 30 -64 51 -30 14 -132 20 -161 8z m173 -54 c11
-16 1 -19 -13 -3 -7 8 -8 14 -3 14 5 0 13 -5 16 -11z m20 -157 c-18 -16 -18
-16 -5 1 12 17 12 20 -3 28 -9 6 -17 14 -17 20 0 5 10 1 22 -11 22 -20 22 -21
3 -38z m29 -7 c-4 -8 -11 -15 -16 -15 -6 0 -5 6 2 15 7 8 14 15 16 15 2 0 1
-7 -2 -15z"/>
<path d="M1821 1044 c0 -11 3 -14 6 -6 3 7 2 16 -1 19 -3 4 -6 -2 -5 -13z"/>
<path d="M1170 1030 c-8 -5 -10 -10 -4 -10 6 0 23 -11 38 -25 21 -20 25 -29
17 -39 -8 -10 -7 -17 4 -26 28 -23 28 -1 0 55 -30 59 -32 60 -55 45z"/>
<path d="M1811 1010 c-1 -8 -14 -41 -29 -72 -16 -32 -23 -53 -16 -47 17 14 56
108 50 122 -3 7 -5 6 -5 -3z"/>
<path d="M1563 990 c-40 -9 -93 -49 -128 -94 -34 -45 -31 -52 8 -22 62 47 184
85 206 63 20 -20 21 0 1 21 l-21 22 23 1 c22 1 22 1 -2 9 -31 10 -46 10 -87 0z
m47 -10 c-10 -6 -11 -10 -2 -10 6 0 12 -4 12 -10 0 -5 -6 -10 -14 -10 -12 0
-14 14 -7 38 1 1 7 2 14 2 8 0 7 -4 -3 -10z"/>
<path d="M1725 950 c3 -5 8 -10 11 -10 2 0 4 5 4 10 0 6 -5 10 -11 10 -5 0 -7
-4 -4 -10z"/>
<path d="M1835 949 c-4 -6 -5 -12 -2 -15 2 -3 7 2 10 11 7 17 1 20 -8 4z"/>
<path d="M1810 909 c0 -5 5 -7 10 -4 6 3 10 8 10 11 0 2 -4 4 -10 4 -5 0 -10
-5 -10 -11z"/>
<path d="M1797 883 c-4 -3 -7 -11 -7 -17 0 -6 5 -5 12 2 6 6 9 14 7 17 -3 3
-9 2 -12 -2z"/>
<path d="M1723 848 c-31 -35 -39 -56 -12 -31 13 12 27 21 31 20 3 -1 10 2 15
7 5 6 2 6 -6 1 -11 -6 -13 -4 -8 8 9 23 4 21 -20 -5z"/>
<path d="M1755 819 c-4 -6 -5 -12 -2 -15 2 -3 7 2 10 11 7 17 1 20 -8 4z"/>
<path d="M1210 798 c-12 -8 -12 -9 2 -5 9 3 19 1 22 -6 3 -9 5 -9 5 0 1 18
-13 23 -29 11z"/>
<path d="M1540 645 c-19 -7 -28 -14 -20 -14 8 0 29 6 45 14 39 17 21 18 -25 0z"/>
<path d="M680 520 c0 -43 -13 -52 -29 -21 -6 10 -22 26 -36 35 l-25 16 3 -55
c4 -65 17 -86 17 -27 0 23 2 42 5 42 3 0 21 -16 40 -35 l35 -34 0 59 c0 33 -2
60 -5 60 -3 0 -5 -18 -5 -40z"/>
<path d="M830 550 c0 -5 6 -9 13 -7 8 1 14 -18 18 -58 l6 -60 1 57 c2 43 6 60
20 67 14 8 10 10 -20 11 -21 0 -38 -4 -38 -10z"/>
<path d="M932 515 c-1 -29 3 -56 10 -63 18 -18 56 -14 68 7 13 25 13 101 0
101 -5 0 -10 -23 -10 -50 0 -87 -56 -79 -63 8 l-3 47 -2 -50z"/>
<path d="M1045 500 c0 -33 4 -60 9 -60 4 0 6 11 4 25 -7 36 15 32 46 -7 14
-18 26 -28 26 -21 0 6 -7 19 -16 28 -15 15 -15 17 2 36 25 27 8 53 -37 57
l-35 3 1 -61z m63 38 c16 -16 15 -25 -3 -32 -23 -8 -45 4 -45 25 0 22 29 26
48 7z"/>
<path d="M1302 504 c-2 -53 1 -62 17 -67 10 -2 25 -1 32 4 10 6 6 9 -13 9 -26
0 -27 3 -31 58 l-3 57 -2 -61z"/>
<path d="M1443 545 c0 -18 14 -20 19 -3 6 18 40 0 36 -19 -2 -11 -14 -19 -31
-21 -22 -3 -27 -8 -27 -32 0 -32 12 -39 55 -31 35 7 46 38 19 58 -10 7 -13 13
-7 13 12 0 12 18 0 38 -12 18 -64 16 -64 -3z m72 -75 c0 -23 -57 -20 -61 3 -2
15 4 18 29 15 20 -2 32 -8 32 -18z"/>
<path d="M1560 501 l0 -59 35 -4 c19 -2 35 0 35 4 0 4 -13 8 -30 8 -23 0 -30
4 -30 20 0 15 7 20 25 20 14 0 25 4 25 9 0 4 -11 6 -25 3 -22 -4 -25 -1 -25
23 0 25 3 27 30 23 17 -3 30 -1 30 4 0 4 -16 8 -35 8 l-35 0 0 -59z"/>
<path d="M1792 515 c-2 -55 10 -75 44 -75 30 0 38 15 40 73 1 64 -14 60 -18
-5 -3 -49 -5 -53 -28 -53 -23 0 -25 5 -31 55 l-6 55 -1 -50z"/>
<path d="M1917 550 c19 -8 21 -14 16 -44 -3 -22 -2 -36 5 -36 5 0 9 17 8 38
-1 29 3 38 19 44 13 4 3 6 -25 6 -36 1 -40 -1 -23 -8z"/>
<path d="M2027 530 c10 -19 21 -48 24 -65 6 -30 6 -30 8 6 0 19 8 44 16 55 25
33 16 41 -10 9 -13 -16 -24 -25 -25 -19 0 5 -7 19 -15 30 -11 13 -11 9 2 -16z"/>
<path d="M1191 494 c-12 -31 -19 -59 -16 -62 2 -3 7 3 11 12 7 19 44 21 63 4
12 -11 13 -9 6 7 -4 11 -12 34 -17 50 -18 50 -24 48 -47 -11z m34 -22 c-22 -5
-27 1 -19 23 7 17 8 17 21 -1 12 -17 12 -19 -2 -22z"/>
<path d="M741 488 c-12 -28 -19 -53 -16 -56 2 -3 7 3 11 12 8 21 42 21 67 -1
11 -10 18 -13 16 -8 -34 85 -43 105 -49 105 -4 0 -17 -23 -29 -52z m39 -4 c0
-14 -12 -19 -23 -8 -9 9 4 35 14 28 5 -3 9 -12 9 -20z"/>
<path d="M1683 489 c-13 -29 -17 -49 -10 -46 6 2 15 18 19 35 10 36 23 42 31
12 4 -14 0 -20 -11 -21 -14 0 -14 -2 -2 -6 8 -3 23 -12 33 -21 22 -19 21 -15
-3 36 -11 22 -20 46 -20 52 0 25 -18 6 -37 -41z"/>
<path d="M1930 450 c0 -5 5 -10 11 -10 5 0 7 5 4 10 -3 6 -8 10 -11 10 -2 0
-4 -4 -4 -10z"/>
</g>
</svg>
